<?xml version="1.0" standalone="no"?>
<!DOCTYPE svg PUBLIC "-//W3C//DTD SVG 20010904//EN"
 "http://www.w3.org/TR/2001/REC-SVG-20010904/DTD/svg10.dtd">
<svg version="1.0" xmlns="http://www.w3.org/2000/svg"
 width="50.000000pt" height="50.000000pt" viewBox="0 0 50.000000 50.000000"
 preserveAspectRatio="xMidYMid meet">

<g transform="translate(0.000000,50.000000) scale(0.100000,-0.100000)"
fill="#000000" stroke="none">
<path d="M10 485 c10 -12 10 -15 0 -15 -23 0 -5 -33 20 -36 l25 -4 -25 16
c-14 9 -17 13 -7 10 10 -3 26 -6 36 -6 9 0 25 -6 35 -13 17 -12 15 -14 -19
-15 -61 -2 -75 -10 -75 -43 0 -27 3 -29 38 -30 20 -1 43 -1 50 0 6 1 12 -4 12
-11 0 -9 3 -9 10 2 6 9 10 10 10 3 0 -8 15 -11 40 -10 46 1 54 14 13 19 -16 2
-28 8 -28 15 0 18 -15 29 -23 16 -5 -8 -15 -7 -37 3 l-30 14 33 -3 c17 -2 32
0 32 4 0 5 7 5 17 2 11 -4 14 -3 9 5 -5 9 0 9 20 2 19 -8 30 -8 38 0 15 15 26
12 19 -6 -4 -11 -14 -14 -34 -10 -16 3 -31 1 -34 -4 -3 -5 9 -12 27 -15 71
-12 108 -13 108 -4 0 6 7 3 16 -6 12 -11 28 -15 54 -12 l38 4 -11 -30 c-10
-30 -11 -30 -20 -9 -6 12 -17 22 -26 23 -9 0 -26 2 -39 5 -17 3 -21 1 -16 -8
6 -10 4 -10 -7 -2 -26 20 -73 4 -51 -18 7 -7 12 -8 12 -2 0 6 6 11 14 11 8 0
12 -6 9 -13 -3 -8 -8 -13 -11 -12 -28 3 -41 -4 -35 -19 5 -15 3 -16 -7 -6 -10
9 -10 16 -2 25 8 11 1 13 -41 12 -52 0 -63 -8 -48 -33 12 -19 108 -23 115 -5
4 9 13 10 35 4 23 -6 35 -5 46 6 8 9 15 11 15 6 0 -6 20 -9 45 -8 25 1 45 -1
45 -4 0 -4 6 -7 13 -8 6 -1 24 -4 40 -8 l27 -6 0 74 0 75 -27 -3 c-40 -4 -113
7 -108 17 3 4 -3 10 -12 12 -14 4 -13 5 4 6 12 0 24 -5 26 -11 3 -7 6 -8 6 -3
1 6 18 9 41 7 55 -6 97 29 50 41 -16 4 -18 2 -10 -13 8 -15 6 -17 -11 -13 -11
3 -17 9 -12 12 4 3 9 14 11 24 3 21 -37 24 -57 5 -11 -10 -14 -10 -18 0 -3 6
-9 12 -15 12 -7 0 -7 -5 1 -13 6 -8 7 -18 3 -22 -4 -5 -2 -6 3 -3 6 3 19 2 30
-3 16 -7 15 -8 -9 -5 -16 1 -36 13 -47 27 -14 19 -20 22 -30 12 -11 -11 -9
-13 6 -14 19 0 19 -1 0 -9 -30 -13 -35 -12 -28 6 5 13 2 15 -13 7 -25 -13 -64
-11 -91 5 -14 8 -24 9 -28 2 -4 -6 -12 -7 -18 -3 -7 4 -43 9 -80 10 -60 2 -67
0 -57 -12z m175 -5 c3 -5 1 -10 -4 -10 -6 0 -11 5 -11 10 0 6 2 10 4 10 3 0 8
-4 11 -10z m245 0 c-8 -5 -19 -10 -25 -10 -5 0 -3 5 5 10 8 5 20 10 25 10 6 0
3 -5 -5 -10z m-233 -47 c0 -7 -5 -12 -11 -10 -15 5 -18 24 -3 24 8 0 14 -6 14
-14z m-57 3 c0 -3 -4 -8 -10 -11 -5 -3 -10 -1 -10 4 0 6 5 11 10 11 6 0 10 -2
10 -4z m130 -15 c0 -4 -6 -8 -14 -8 -8 0 -12 6 -9 14 5 13 23 9 23 -6z m93
-31 c9 -11 13 -20 9 -20 -10 1 -42 26 -42 34 0 12 16 6 33 -14z m-333 -4 c0
-3 -4 -8 -10 -11 -5 -3 -10 -1 -10 4 0 6 5 11 10 11 6 0 10 -2 10 -4z m455
-26 c3 -5 -1 -10 -9 -10 -9 0 -16 -5 -16 -11 0 -5 -4 -8 -9 -4 -6 3 -15 -3
-21 -12 -11 -17 -11 -17 -6 0 3 10 6 22 6 27 0 7 16 14 42 19 4 0 10 -3 13 -9z
m-305 -70 c0 -5 -4 -10 -10 -10 -5 0 -10 5 -10 10 0 6 5 10 10 10 6 0 10 -4
10 -10z"/>
<path d="M255 490 c3 -5 8 -10 11 -10 2 0 4 5 4 10 0 6 -5 10 -11 10 -5 0 -7
-4 -4 -10z"/>
<path d="M43 292 c2 -27 8 -27 37 -4 22 18 22 18 1 18 -12 0 -21 -5 -21 -11 0
-5 -5 -3 -10 5 -7 12 -9 10 -7 -8z"/>
<path d="M0 290 c0 -5 7 -10 15 -10 8 0 15 5 15 10 0 6 -7 10 -15 10 -8 0 -15
-4 -15 -10z"/>
<path d="M87 283 c-12 -12 -7 -22 8 -17 8 4 15 10 15 15 0 11 -14 12 -23 2z"/>
<path d="M253 251 c0 -11 6 -17 12 -14 5 3 4 0 -2 -7 -11 -12 -15 -11 -26 5
-11 14 -16 15 -22 5 -5 -9 -4 -11 3 -6 7 4 12 1 12 -8 0 -18 -16 -21 -25 -6
-4 6 -10 8 -15 5 -4 -2 -19 4 -33 15 -14 11 -31 19 -37 18 -16 -4 -67 -51 -63
-59 2 -6 118 -3 139 3 5 1 19 -3 32 -10 12 -7 22 -9 22 -4 0 5 23 9 50 9 30 0
50 -4 50 -11 0 -6 4 -5 9 3 5 7 13 11 18 8 8 -5 10 32 3 41 -2 1 -3 8 -4 15
-1 16 -46 22 -46 7 0 -7 8 -10 19 -7 14 3 18 1 14 -9 -3 -8 -10 -11 -16 -7 -5
3 -15 -1 -21 -9 -6 -8 -15 -15 -21 -15 -12 0 -41 39 -37 50 1 4 -2 7 -7 7 -6
0 -9 -9 -8 -19z m-119 -9 c3 -5 -1 -9 -9 -9 -8 0 -12 4 -9 9 3 4 7 8 9 8 2 0
6 -4 9 -8z"/>
<path d="M50 250 c-13 -8 -12 -10 3 -10 9 0 17 5 17 10 0 12 -1 12 -20 0z"/>
<path d="M395 216 c1 -26 8 -52 15 -56 6 -4 -9 -7 -34 -7 -36 0 -47 4 -51 18
-9 27 -25 23 -25 -6 0 -14 -4 -25 -9 -25 -5 0 -7 9 -4 20 5 18 2 20 -33 14
-39 -6 -71 -24 -43 -24 12 0 12 -2 -1 -10 -8 -5 -12 -11 -9 -14 9 -9 52 -9 74
-1 l20 8 -20 -16 c-50 -40 -104 -1 -72 51 12 19 -16 25 -67 14 -30 -6 -48 -6
-55 1 -8 8 -11 7 -11 -4 0 -12 -2 -12 -10 1 -5 8 -10 12 -10 8 0 -4 -11 -3
-25 2 -25 9 -25 9 -25 -40 0 -38 4 -50 15 -50 8 0 15 4 15 10 0 6 10 5 25 -2
23 -10 24 -13 9 -21 -13 -7 -19 -7 -22 1 -5 16 -22 5 -22 -15 0 -11 6 -14 23
-8 30 9 69 7 81 -5 5 -5 -7 -7 -33 -5 -24 2 -39 0 -36 -6 4 -5 21 -9 40 -9 19
0 37 -5 40 -10 3 -6 14 -9 23 -9 15 1 15 2 -1 6 -13 3 -16 10 -11 25 4 13 1
24 -7 29 -12 7 -12 9 -1 9 8 0 16 -9 19 -20 7 -26 23 -26 23 -1 0 11 5 23 12
27 7 4 8 3 4 -5 -4 -6 0 -18 8 -27 15 -14 19 -14 47 0 23 12 28 12 20 2 -9
-10 -8 -15 1 -19 17 -6 61 11 54 21 -3 5 0 9 7 10 25 3 167 55 167 62 0 4 -10
6 -22 6 -13 -1 -22 4 -20 12 1 6 -2 12 -8 12 -5 0 -10 -10 -11 -22 l0 -23 -9
23 c-5 12 -15 22 -22 22 -10 0 -9 3 1 9 8 5 20 7 28 4 8 -3 13 2 13 12 0 12
-6 16 -19 12 -14 -3 -18 -1 -14 9 3 8 0 14 -5 14 -6 0 -12 8 -15 18 -2 9 -3
-5 -2 -32z m-135 -56 c0 -5 -5 -10 -11 -10 -5 0 -7 5 -4 10 3 6 8 10 11 10 2
0 4 -4 4 -10z m-80 -28 c0 -14 -11 -21 -26 -15 -8 3 -11 9 -8 14 7 11 34 12
34 1z"/>
<path d="M470 243 c0 -5 7 -17 15 -27 14 -19 15 -19 15 7 0 17 -5 27 -15 27
-8 0 -15 -3 -15 -7z"/>
<path d="M186 45 c-3 -8 3 -19 12 -25 13 -9 6 -10 -30 -7 -27 3 -48 1 -48 -4
0 -5 33 -9 73 -9 50 0 67 3 57 10 -8 5 -10 10 -4 10 6 0 14 -3 18 -7 4 -4 17
-8 29 -10 16 -2 23 2 23 15 0 15 -9 17 -63 15 -51 -2 -61 0 -57 12 4 8 4 15 1
15 -3 0 -7 -7 -11 -15z"/>
<path d="M25 29 c-15 -6 -11 -8 18 -8 20 -1 37 1 37 3 0 9 -37 12 -55 5z"/>
<path d="M470 18 c0 -4 7 -8 15 -8 8 0 15 4 15 8 0 5 -7 9 -15 9 -8 0 -15 -4
-15 -9z"/>
</g>
</svg>
