<?xml version="1.0" standalone="no"?>
<!DOCTYPE svg PUBLIC "-//W3C//DTD SVG 20010904//EN"
 "http://www.w3.org/TR/2001/REC-SVG-20010904/DTD/svg10.dtd">
<svg version="1.0" xmlns="http://www.w3.org/2000/svg"
 width="99.000000pt" height="99.000000pt" viewBox="0 0 99.000000 99.000000"
 preserveAspectRatio="xMidYMid meet">

<g transform="translate(0.000000,99.000000) scale(0.100000,-0.100000)"
fill="#000000" stroke="none">
<path d="M0 981 c0 -5 7 -14 16 -22 14 -11 14 -13 0 -21 -19 -10 -21 -49 -5
-65 9 -9 18 -7 37 5 14 9 40 18 59 19 34 2 54 -14 33 -27 -9 -6 -10 -9 0 -15
7 -4 16 -2 20 6 7 11 13 11 35 -1 22 -12 23 -15 10 -23 -10 -5 -21 -4 -29 2
-7 6 -15 9 -17 6 -3 -2 -25 -6 -49 -8 -25 -3 -60 -8 -77 -12 l-33 -7 0 -65 0
-64 68 2 c112 2 118 1 129 -23 l10 -23 7 23 c9 27 26 29 26 3 0 -23 42 -25 83
-5 15 8 27 10 27 5 0 -10 36 -21 44 -14 3 3 1 14 -5 24 -8 16 -17 18 -48 13
-33 -5 -41 -3 -50 14 -15 28 9 47 46 37 16 -4 57 -10 93 -13 36 -4 71 -11 78
-15 7 -5 19 -4 27 3 9 7 15 8 20 0 11 -18 28 -11 22 10 -3 11 -2 20 3 20 4 0
10 -9 13 -20 3 -11 12 -20 21 -20 9 0 16 -4 16 -9 0 -12 92 -1 109 13 11 9 13
6 7 -14 -4 -14 -4 -20 1 -14 4 6 15 13 24 16 13 5 15 1 11 -20 -7 -43 -26 -82
-39 -82 -7 0 -13 7 -13 15 0 8 -4 15 -10 15 -5 0 -10 9 -10 20 0 21 -20 29
-77 33 -18 1 -33 5 -33 10 0 11 -38 8 -45 -3 -5 -8 -11 -8 -20 0 -10 8 -15 8
-20 0 -4 -6 -13 -9 -21 -6 -7 3 -16 1 -19 -4 -4 -6 -15 -10 -26 -10 -27 0 -24
-20 9 -47 24 -20 25 -22 7 -24 -11 -1 -28 -1 -37 0 -23 3 -23 -18 -1 -34 15
-11 15 -15 4 -29 -11 -14 -11 -16 3 -16 9 0 16 6 16 13 0 24 36 37 70 26 17
-6 34 -9 37 -5 3 3 12 1 20 -5 9 -9 13 -8 13 0 0 6 11 11 25 11 18 0 23 4 19
15 -4 10 0 15 11 15 10 0 15 -5 12 -13 -4 -10 14 -13 74 -14 43 -1 81 3 85 8
8 14 24 1 18 -15 -6 -16 12 -31 21 -17 3 6 18 5 38 -3 17 -8 47 -17 65 -21
l32 -7 0 149 0 148 -71 -2 c-43 -2 -78 2 -86 8 -8 7 -31 9 -63 5 -47 -6 -50
-6 -47 15 1 17 -5 25 -23 30 -22 6 -20 7 13 8 27 1 37 -3 37 -14 0 -8 5 -15
10 -15 6 0 10 7 10 15 0 16 12 20 23 8 4 -3 40 -7 79 -9 62 -1 76 1 95 20 33
31 31 62 -4 60 -18 0 -29 -7 -31 -17 -2 -10 -7 -17 -12 -17 -5 0 -15 -3 -24
-6 -10 -4 -16 -1 -16 10 0 10 6 13 16 9 12 -4 14 0 9 20 -4 14 -2 28 4 31 6 4
11 11 11 17 0 13 -107 11 -115 -2 -12 -18 4 -23 29 -10 13 8 29 10 35 6 7 -4
-3 -14 -26 -26 -31 -16 -40 -17 -48 -6 -14 19 -34 10 -28 -12 3 -11 -2 -21
-13 -25 -22 -9 -32 2 -14 15 13 9 13 10 0 6 -23 -7 -50 11 -50 33 0 23 -45 39
-62 22 -15 -15 0 -32 28 -32 14 0 23 -4 19 -9 -3 -6 -13 -9 -23 -9 -9 0 -30
-2 -47 -6 -21 -5 -26 -5 -16 2 8 6 11 17 7 27 -4 12 -10 14 -19 7 -6 -5 -22
-12 -33 -16 -19 -6 -21 -3 -16 19 3 20 0 25 -17 25 -23 0 -29 -15 -8 -23 9 -4
8 -8 -3 -16 -20 -15 -91 -7 -104 11 -6 8 -17 13 -24 10 -10 -3 -10 -7 -1 -18
9 -11 7 -14 -9 -14 -24 0 -38 30 -20 42 11 6 11 8 0 8 -7 0 -15 -7 -18 -15 -8
-20 -24 -19 -39 2 -11 15 -15 15 -29 4 -11 -9 -16 -10 -16 -2 0 15 -67 14 -72
-1 -3 -9 -12 -9 -38 0 -39 14 -130 16 -130 3z m215 -11 c3 -5 -1 -10 -10 -10
-9 0 -13 5 -10 10 3 6 8 10 10 10 2 0 7 -4 10 -10z m625 -66 c0 -2 -15 -4 -32
-4 -23 0 -29 3 -19 9 12 8 51 4 51 -5z m-780 -4 c0 -5 -9 -10 -19 -10 -11 0
-23 5 -26 10 -4 6 5 10 19 10 14 0 26 -4 26 -10z m318 -58 c-18 -7 -38 8 -38
28 0 20 0 20 23 -2 13 -13 20 -25 15 -26z m-108 13 c-7 -8 -16 -15 -21 -15 -5
0 -9 7 -9 15 0 9 9 15 21 15 18 0 19 -2 9 -15z m258 7 c7 -5 10 -16 6 -25 -7
-19 -19 -14 -34 14 -12 21 3 26 28 11z m-78 -32 c12 -8 12 -10 -3 -16 -9 -3
-17 -12 -17 -20 0 -17 -61 -19 -90 -4 -15 8 -22 6 -34 -12 -12 -17 -18 -19
-29 -9 -18 14 -47 4 -48 -18 0 -10 -2 -11 -6 -3 -2 6 -18 12 -33 12 -16 0 -32
5 -35 10 -3 6 -15 10 -26 10 -11 0 -17 5 -14 10 6 10 87 6 105 -5 4 -3 11 2
14 11 5 12 10 13 19 6 8 -7 18 -7 27 -2 20 13 80 13 80 0 0 -19 25 -10 44 15
21 28 24 29 46 15z m255 -41 c4 -11 4 -23 1 -26 -3 -4 -6 -1 -6 5 0 7 -11 12
-25 12 -16 0 -25 6 -25 15 0 24 47 19 55 -6z m-655 -34 c-7 -8 -16 -15 -20
-15 -4 0 -10 7 -14 15 -4 11 2 15 21 15 21 0 24 -2 13 -15z m705 -15 c-3 -5
-12 -7 -20 -3 -21 7 -19 13 6 13 11 0 18 -4 14 -10z m199 -16 c25 -10 19 -21
-14 -27 -23 -5 -30 -12 -30 -29 0 -17 -3 -19 -9 -9 -13 20 -51 4 -51 -22 0
-16 -3 -18 -12 -9 -9 9 -7 16 6 31 9 10 16 27 14 38 -2 14 3 17 24 15 14 -1
29 2 33 8 7 12 17 13 39 4z m-450 -90 c20 -19 21 -34 2 -34 -13 0 -26 20 -26
41 0 13 6 11 24 -7z m211 -24 c3 -5 -1 -10 -10 -10 -9 0 -13 5 -10 10 3 6 8
10 10 10 2 0 7 -4 10 -10z m-115 -30 c0 -5 -7 -10 -15 -10 -8 0 -15 5 -15 10
0 6 7 10 15 10 8 0 15 -4 15 -10z"/>
<path d="M410 980 c0 -5 4 -10 9 -10 6 0 13 5 16 10 3 6 -1 10 -9 10 -9 0 -16
-4 -16 -10z"/>
<path d="M455 980 c3 -5 10 -10 16 -10 5 0 9 5 9 10 0 6 -7 10 -16 10 -8 0
-12 -4 -9 -10z"/>
<path d="M722 978 c6 -18 28 -21 28 -4 0 9 -7 16 -16 16 -9 0 -14 -5 -12 -12z"/>
<path d="M960 986 c0 -2 7 -6 15 -10 8 -3 15 -1 15 4 0 6 -7 10 -15 10 -8 0
-15 -2 -15 -4z"/>
<path d="M67 874 c-9 -10 2 -24 19 -24 8 0 14 7 14 15 0 15 -21 21 -33 9z"/>
<path d="M227 617 c-9 -12 -17 -25 -17 -29 0 -4 -8 -8 -17 -8 -14 0 -15 2 -4
9 7 5 10 14 6 20 -5 9 -10 9 -22 0 -11 -10 -19 -10 -34 -1 -17 11 -21 9 -29
-10 -7 -18 -9 -19 -9 -5 -1 9 -5 17 -10 17 -13 0 -22 -28 -11 -35 5 -3 7 -12
3 -20 -3 -10 2 -15 16 -15 12 0 21 4 21 9 0 5 9 7 20 4 11 -3 20 -11 20 -18 0
-8 9 -10 25 -7 16 3 25 11 25 23 0 11 7 19 15 19 10 0 15 -7 13 -17 -2 -11 3
-18 13 -18 9 0 23 -6 32 -14 9 -7 22 -9 29 -5 7 5 18 9 23 9 6 0 25 4 43 9 23
5 31 11 24 18 -12 12 2 57 21 71 7 4 -4 5 -23 1 -45 -9 -125 -5 -145 8 -6 4
-18 -3 -28 -15z m121 -50 c-2 -9 -10 -12 -22 -8 -18 7 -18 8 0 25 18 19 29 10
22 -17z"/>
<path d="M7 593 c-15 -15 -6 -33 17 -33 23 0 41 22 29 34 -8 8 -38 8 -46 -1z"/>
<path d="M501 508 c0 -16 2 -18 6 -8 3 8 11 18 17 22 7 5 4 8 -6 8 -12 0 -18
-7 -17 -22z"/>
<path d="M652 513 c4 -21 43 -19 65 3 12 12 9 14 -27 14 -34 0 -41 -3 -38 -17z"/>
<path d="M102 505 c-30 -16 -29 -29 3 -32 15 -1 28 4 32 13 9 23 -9 32 -35 19z"/>
<path d="M197 514 c-4 -4 -7 -15 -7 -25 0 -21 -31 -52 -72 -72 -26 -13 -27
-15 -11 -22 10 -5 32 -9 48 -10 17 -1 38 -6 49 -10 10 -5 21 -4 25 3 3 5 31
11 61 11 70 3 93 5 106 14 7 4 31 -7 54 -24 46 -34 42 -49 -12 -41 -19 3 -32
12 -36 24 -3 14 -11 18 -26 14 -11 -2 -50 -8 -86 -11 -36 -4 -76 -12 -89 -18
-20 -10 -26 -8 -41 11 -23 27 -34 28 -27 2 3 -13 0 -20 -9 -20 -8 0 -14 7 -14
15 0 9 -6 12 -15 9 -8 -4 -21 -2 -28 4 -6 5 -25 12 -40 16 l-28 7 3 -98 c3
-94 4 -98 26 -101 18 -3 21 -6 12 -17 -7 -8 -9 -23 -5 -35 8 -24 47 -27 86 -7
16 9 33 11 47 6 12 -5 29 -6 37 -3 18 7 45 -12 45 -32 0 -19 -20 -17 -43 4
-18 16 -20 16 -30 0 -10 -16 -13 -16 -39 0 -32 19 -49 9 -25 -15 10 -11 36
-17 73 -19 61 -3 104 -27 71 -40 -9 -3 -17 -12 -17 -20 0 -11 27 -14 140 -14
87 0 140 4 140 10 0 6 -12 10 -27 11 -25 0 -26 1 -8 9 14 6 24 3 35 -9 11 -12
32 -18 70 -19 35 -1 50 1 41 7 -9 6 -11 18 -6 40 4 20 3 31 -4 31 -6 0 -11 -5
-11 -11 0 -6 -15 -9 -34 -8 -19 2 -38 0 -42 -4 -11 -10 -52 -9 -59 3 -3 5 -11
7 -18 5 -7 -3 -27 -6 -45 -8 -31 -2 -46 -21 -19 -23 34 -3 27 -8 -18 -13 -27
-3 -61 -4 -74 -2 -23 4 -23 4 5 17 l29 12 -28 1 c-30 1 -46 26 -28 44 17 17
14 68 -3 61 -8 -3 -17 -1 -21 5 -9 15 38 14 53 -1 7 -7 12 -22 12 -35 0 -14 6
-23 15 -23 10 0 15 10 15 34 0 39 15 56 25 27 3 -11 12 -22 20 -25 8 -3 15
-12 15 -21 0 -17 18 -19 54 -5 19 7 29 6 41 -6 8 -9 22 -13 31 -10 8 3 17 -1
20 -9 8 -19 24 -20 24 -2 0 9 10 12 30 9 17 -2 30 0 30 5 0 6 10 21 23 34 32
36 123 72 275 110 38 9 52 17 52 31 0 14 -6 16 -30 12 -31 -7 -67 17 -55 36 3
5 -3 10 -14 10 -17 0 -21 -7 -22 -37 -2 -31 -3 -33 -6 -10 -3 20 -15 33 -45
48 -22 11 -37 16 -33 10 11 -19 -23 -44 -55 -39 -17 3 -30 1 -30 -4 0 -4 -8
-8 -18 -8 -12 0 -26 15 -38 40 -22 47 -48 50 -50 5 -2 -51 -4 -55 -19 -55 -18
0 -19 4 -2 31 10 17 9 22 -7 35 -13 9 -23 11 -29 5 -11 -11 -37 11 -37 31 0
10 3 9 10 -2 8 -12 12 -12 18 -2 12 19 162 15 162 -4 0 -8 7 -14 15 -14 8 0
15 7 15 16 0 13 7 15 33 10 17 -3 27 -3 21 2 -21 14 -21 37 2 64 14 18 20 35
17 49 -4 16 -8 17 -14 7 -5 -7 -9 -21 -9 -30 0 -19 -28 -14 -42 6 -5 7 -8 4
-8 -6 0 -20 -15 -24 -25 -8 -16 26 -64 -2 -66 -37 0 -10 -3 -13 -6 -5 -2 6
-11 12 -19 12 -8 0 -14 -6 -14 -12 0 -7 -6 -2 -13 11 -6 13 -21 30 -33 37 -17
12 -23 12 -40 -1 -16 -13 -17 -16 -4 -25 13 -8 13 -10 -2 -10 -11 0 -18 8 -18
19 0 10 -7 22 -16 25 -17 7 -54 -10 -54 -24 0 -13 13 -13 27 1 8 8 13 5 18
-11 10 -30 -8 -46 -29 -25 -9 9 -27 18 -41 19 -14 1 -28 6 -32 9 -3 4 -13 7
-21 7 -8 0 -25 11 -38 25 -13 14 -32 25 -44 25 -22 0 -28 -16 -8 -22 9 -3 7
-10 -6 -24 -19 -19 -20 -19 -14 3 6 23 -13 59 -25 47z m313 -199 c0 -8 -7 -15
-16 -15 -14 0 -14 3 -4 15 7 8 14 15 16 15 2 0 4 -7 4 -15z m320 -10 c0 -9 -6
-12 -15 -9 -8 4 -12 10 -9 15 8 14 24 10 24 -6z m-396 -14 c4 -5 -5 -13 -19
-18 -22 -7 -24 -10 -13 -26 10 -13 28 -18 70 -18 42 -1 55 -4 52 -14 -9 -22
-83 -23 -109 -3 -13 10 -28 18 -34 18 -16 0 -14 17 5 45 17 25 38 32 48 16z
m-76 -42 c4 -22 -26 -28 -62 -14 -27 11 -28 13 -10 24 26 15 68 9 72 -10z
m-111 -11 c-3 -8 -6 -5 -6 6 -1 11 2 17 5 13 3 -3 4 -12 1 -19z m320 6 c-3 -3
-12 -4 -19 -1 -8 3 -5 6 6 6 11 1 17 -2 13 -5z m-492 -24 c3 -5 12 -7 20 -4 7
3 22 -3 33 -14 20 -20 20 -20 -5 -31 -32 -15 -43 -14 -43 3 0 8 -7 16 -15 20
-8 3 -15 12 -15 21 0 17 16 20 25 5z m140 -29 c3 -5 1 -12 -5 -16 -5 -3 -10 1
-10 9 0 18 6 21 15 7z"/>
<path d="M34 494 c3 -9 6 -18 6 -20 0 -3 4 -2 10 1 16 10 12 35 -6 35 -11 0
-14 -5 -10 -16z"/>
<path d="M335 480 c3 -5 8 -10 11 -10 2 0 4 5 4 10 0 6 -5 10 -11 10 -5 0 -7
-4 -4 -10z"/>
<path d="M930 477 c0 -7 9 -20 20 -30 11 -9 20 -24 20 -32 0 -8 5 -15 10 -15
6 0 10 20 10 45 0 43 -1 45 -30 45 -18 0 -30 -5 -30 -13z"/>
<path d="M791 436 c-8 -10 -9 -16 -1 -21 6 -4 10 -12 9 -18 -1 -7 -1 -20 0
-31 1 -17 3 -17 26 -2 21 14 25 14 33 1 14 -25 44 -7 40 24 -2 14 -7 25 -13
25 -5 -1 -26 -4 -45 -8 -19 -3 -29 -3 -22 0 16 8 15 44 -2 44 -7 0 -19 -6 -25
-14z"/>
<path d="M910 380 c0 -5 7 -10 15 -10 8 0 15 5 15 10 0 6 -7 10 -15 10 -8 0
-15 -4 -15 -10z"/>
<path d="M940 330 c0 -19 3 -21 12 -12 9 9 9 15 0 24 -9 9 -12 7 -12 -12z"/>
<path d="M970 336 c0 -8 5 -18 10 -21 6 -3 10 3 10 14 0 12 -4 21 -10 21 -5 0
-10 -6 -10 -14z"/>
<path d="M0 160 c0 -11 5 -20 10 -20 6 0 10 9 10 20 0 11 -4 20 -10 20 -5 0
-10 -9 -10 -20z"/>
<path d="M748 143 c7 -3 16 -2 19 1 4 3 -2 6 -13 5 -11 0 -14 -3 -6 -6z"/>
<path d="M381 94 c0 -11 3 -14 6 -6 3 7 2 16 -1 19 -3 4 -6 -2 -5 -13z"/>
<path d="M20 91 c0 -5 7 -11 15 -15 8 -3 15 -1 15 3 0 5 -7 11 -15 15 -8 3
-15 1 -15 -3z"/>
<path d="M43 59 c-55 -16 -37 -28 35 -25 37 2 67 7 67 12 0 5 -10 7 -22 6 -11
-2 -24 2 -28 7 -7 13 -9 13 -52 0z"/>
<path d="M942 30 c2 -8 13 -16 26 -18 16 -3 22 2 22 16 0 15 -6 20 -25 18 -17
-1 -25 -6 -23 -16z"/>
<path d="M18 3 c7 -3 16 -2 19 1 4 3 -2 6 -13 5 -11 0 -14 -3 -6 -6z"/>
<path d="M748 3 c7 -3 16 -2 19 1 4 3 -2 6 -13 5 -11 0 -14 -3 -6 -6z"/>
</g>
</svg>
